<svg width="180" height="188" viewBox="0 0 180 188" fill="none" xmlns="http://www.w3.org/2000/svg">
<path d="M0 86C0 81.5817 3.58172 78 8 78H172C176.418 78 180 81.5817 180 86V180C180 184.418 176.418 188 172 188H8C3.58172 188 0 184.418 0 180V86Z" fill="#171717"/>
<path d="M6 90C6 86.6863 8.68629 84 12 84H168C171.314 84 174 86.6863 174 90V106C174 109.314 171.314 112 168 112H12C8.68629 112 6 109.314 6 106V90Z" fill="#747474"/>
<path d="M70 149C70 166.673 55.6731 181 38 181C20.3269 181 6 166.673 6 149C6 131.327 20.3269 117 38 117C55.6731 117 70 131.327 70 149Z" fill="#747474"/>
<path d="M142 149C142 166.673 127.673 181 110 181C92.3269 181 78 166.673 78 149C78 131.327 92.3269 117 110 117C127.673 117 142 131.327 142 149Z" fill="#747474"/>
<path d="M174 169C174 175.627 168.627 181 162 181C155.373 181 150 175.627 150 169C150 162.373 155.373 157 162 157C168.627 157 174 162.373 174 169Z" fill="#747474"/>
<path d="M174 129C174 135.627 168.627 141 162 141C155.373 141 150 135.627 150 129C150 122.373 155.373 117 162 117C168.627 117 174 122.373 174 129Z" fill="#747474"/>
<path d="M156 144C156 143.448 156.448 143 157 143H167C167.552 143 168 143.448 168 144C168 144.552 167.552 145 167 145H157C156.448 145 156 144.552 156 144Z" fill="#D9D9D9"/>
<path d="M158 154C158 153.448 158.448 153 159 153H165C165.552 153 166 153.448 166 154C166 154.552 165.552 155 165 155H159C158.448 155 158 154.552 158 154Z" fill="#D9D9D9"/>
<path d="M124 84H127V112H124V84Z" fill="#D9D9D9"/>
<path d="M31.2392 0L36.1632 0.868241L21.924 81.6225L17 80.7542L31.2392 0Z" fill="#171717"/>
</svg>
